<?xml version="1.0" standalone="no"?>
<!DOCTYPE svg PUBLIC "-//W3C//DTD SVG 20010904//EN"
 "http://www.w3.org/TR/2001/REC-SVG-20010904/DTD/svg10.dtd">
<svg version="1.0" xmlns="http://www.w3.org/2000/svg"
 width="600.000000pt" height="600.000000pt" viewBox="0 0 600.000000 600.000000"
 preserveAspectRatio="xMidYMid meet">
<metadata>
Created by potrace 1.11, written by Peter Selinger 2001-2013
</metadata>
<g transform="translate(0.000000,600.000000) scale(0.100000,-0.100000)"
fill="#000000" stroke="none">
<path d="M1763 3020 l0 -2450 369 0 368 0 2 921 3 920 243 2 c262 2 246 5 256
-50 2 -10 29 -119 59 -243 59 -240 109 -443 181 -740 25 -102 68 -279 96 -395
29 -116 53 -217 55 -225 2 -8 10 -42 18 -75 8 -33 18 -72 21 -87 l6 -28 400 0
c220 0 400 4 400 8 0 5 -6 31 -14 58 -14 47 -112 430 -121 469 -6 29 -60 240
-91 352 -14 54 -27 105 -29 114 -4 21 -92 368 -111 439 -9 30 -17 62 -19 70
-16 66 -61 242 -95 375 -72 276 -70 249 -24 294 183 176 295 389 341 651 10
58 10 1059 0 1125 -14 95 -39 209 -57 265 -83 259 -260 462 -495 567 -80 36
-218 78 -290 88 -28 4 -61 9 -75 12 -14 3 -334 7 -711 9 l-686 4 0 -2450z
m1363 1666 c110 -39 198 -136 225 -250 20 -81 21 -892 1 -970 -29 -119 -116
-224 -227 -277 -82 -39 -106 -42 -382 -43 l-243 -2 0 784 0 783 288 -3 c245
-3 294 -7 338 -22z"/>
</g>
</svg>
